<?xml version="1.0" encoding="utf-8"?>
<!-- Generator: Adobe Illustrator 21.0.1, SVG Export Plug-In . SVG Version: 6.00 Build 0)  -->
<!DOCTYPE svg PUBLIC "-//W3C//DTD SVG 1.1//EN" "http://www.w3.org/Graphics/SVG/1.1/DTD/svg11.dtd">
<svg version="1.1" id="Calque_1" xmlns="http://www.w3.org/2000/svg" xmlns:xlink="http://www.w3.org/1999/xlink" x="0px" y="0px"
	 viewBox="0 0 1517 282" enable-background="new 0 0 1517 282" xml:space="preserve">
<rect x="-0.1" y="-0.1" fill="#072249" width="1517.5" height="282.1"/>
<path fill="#FFFFFF" d="M177.3,84c0.7,1.2,1.4,2.8,2,4.7c0.6,1.9,0.9,4.1,0.9,6.4c0,4-0.9,7-2.6,8.9c-1.8,1.9-4.2,2.9-7.4,2.9h-40.5
	v23.9h41.4c0.7,1.3,1.4,2.9,2.1,4.7c0.7,1.8,1,4,1,6.4c0,4-0.9,7-2.7,8.9c-1.8,1.9-4.3,2.8-7.3,2.8H130v40.7c-1.3,0.4-3.2,0.7-5.7,1
	c-2.4,0.3-5,0.5-7.7,0.5c-5.7,0-9.7-1-12-2.9c-2.3-1.9-3.4-5.5-3.4-10.6V99.1c0-4.6,1.4-8.3,4.1-11c2.7-2.7,6.4-4.1,11-4.1H177.3z"
	/>
<path fill="#FFFFFF" d="M219.6,194.4c-1.2,0.4-2.9,0.7-5.1,1c-2.2,0.3-4.6,0.5-7.3,0.5c-5.5,0-9.4-0.9-11.9-2.6
	c-2.4-1.8-3.7-5.2-3.7-10.3v-55.7c0-3.4,0.8-6.3,2.6-8.8c1.7-2.4,4.1-4.6,7.1-6.4c4-2.4,8.9-4.4,14.5-5.8c5.7-1.4,11.6-2.1,17.8-2.1
	c12.7,0,19,4.3,19,12.8c0,2.1-0.3,4-0.9,5.7c-0.6,1.7-1.3,3.2-2,4.4c-2.8-0.6-6.2-0.9-10.2-0.9c-3.5,0-7.1,0.4-10.6,1.3
	c-3.5,0.9-6.6,2-9.3,3.5V194.4z"/>
<path fill="#FFFFFF" d="M264.9,81.6c0-4.1,1.4-7.7,4.3-10.6c2.9-2.9,6.6-4.4,11.2-4.4c4.6,0,8.4,1.5,11.2,4.4
	c2.9,2.9,4.3,6.5,4.3,10.6c0,4.3-1.4,7.9-4.3,10.8c-2.9,2.9-6.6,4.4-11.2,4.4c-4.6,0-8.4-1.5-11.2-4.4
	C266.3,89.5,264.9,85.9,264.9,81.6z M294.3,194.4c-1.2,0.4-2.9,0.7-5.1,1c-2.2,0.3-4.6,0.5-7.3,0.5c-5.5,0-9.4-0.9-11.8-2.6
	c-2.4-1.8-3.6-5.2-3.6-10.3v-75c1.2-0.4,2.9-0.7,5.1-1.1c2.2-0.4,4.6-0.5,7.3-0.5c5.5,0,9.4,0.9,11.8,2.7s3.6,5.3,3.6,10.4V194.4z"
	/>
<path fill="#FFFFFF" d="M339.4,162.3c1.7,5.1,4.7,8.7,8.9,10.9c4.3,2.1,9.2,3.2,14.8,3.2c5.1,0,9.9-0.7,14.4-2.1
	c4.5-1.4,8.2-2.9,11-4.7c1.8,1.2,3.3,2.8,4.6,4.7c1.2,1.9,1.8,4.1,1.8,6.4c0,2.8-0.9,5.2-2.6,7.3c-1.7,2.1-4,3.8-7,5.2
	c-3,1.4-6.5,2.4-10.6,3.1c-4.1,0.7-8.6,1-13.4,1c-7.2,0-13.8-1-19.9-3c-6.1-2-11.3-5-15.7-8.9c-4.4-4-7.8-8.9-10.3-14.9
	c-2.5-6-3.7-13-3.7-21c0-7.8,1.2-14.5,3.7-20.3c2.5-5.7,5.8-10.5,10-14.2c4.2-3.8,9-6.5,14.4-8.3c5.4-1.8,11-2.6,16.7-2.6
	c6.2,0,11.9,0.9,17.1,2.8c5.2,1.9,9.6,4.5,13.3,7.9c3.7,3.4,6.6,7.5,8.7,12.2c2.1,4.7,3.1,9.9,3.1,15.5c0,3.9-1,6.8-3.1,8.8
	c-2.1,1.9-5,3.2-8.8,3.8L339.4,162.3z M356.7,124.7c-5.2,0-9.6,1.6-13.1,4.8c-3.5,3.2-5.5,7.9-6.1,14l34.9-5.7
	c-0.2-3.2-1.6-6.1-4.2-8.9C365.7,126.1,361.9,124.7,356.7,124.7z"/>
<path fill="#FFFFFF" d="M467.7,129.1c-2.6-2.1-6-3.1-10.2-3.1c-2.9,0-5.6,0.4-8,1.1c-2.4,0.7-4.7,1.6-6.8,2.7v64.6
	c-1.2,0.4-2.9,0.7-5.1,1c-2.2,0.3-4.6,0.5-7.3,0.5c-5.5,0-9.4-0.9-11.9-2.6c-2.4-1.8-3.7-5.2-3.7-10.3v-56.4c0-3.2,0.7-5.7,2-7.7
	c1.3-1.9,3.2-3.8,5.7-5.5c3.9-2.8,8.9-5,15.1-6.8c6.1-1.7,12.9-2.6,20.4-2.6c13.3,0,23.5,2.9,30.8,8.8c7.2,5.8,10.9,14.2,10.9,25
	v56.6c-1.3,0.4-3.1,0.7-5.3,1c-2.2,0.3-4.6,0.5-7.3,0.5c-5.5,0-9.4-0.9-11.8-2.6s-3.6-5.2-3.6-10.3v-44.4
	C471.6,134.3,470.3,131.2,467.7,129.1z"/>
<path fill="#FFFFFF" d="M562.1,104.1c2.8,0,5.4,0.2,7.9,0.6c2.5,0.4,4.8,1,6.8,1.7V75.8c1.3-0.4,3.1-0.7,5.3-1.1s4.6-0.5,7.3-0.5
	c5.5,0,9.4,0.9,11.8,2.7c2.4,1.8,3.6,5.3,3.6,10.4v88.9c0,2.9-0.6,5.4-1.8,7.4c-1.2,2-3.2,3.9-5.8,5.6c-3.4,2.1-7.8,4-13.1,5.7
	c-5.4,1.7-11.5,2.6-18.4,2.6c-15.3,0-27.4-3.9-36.2-11.6c-8.8-7.7-13.2-19.3-13.2-34.8c0-8,1.2-15,3.6-20.8
	c2.4-5.8,5.6-10.7,9.8-14.6c4.1-3.9,9-6.8,14.6-8.7C549.6,105,555.7,104.1,562.1,104.1z M577.1,128.7c-1.6-0.7-3.3-1.4-5.2-1.9
	c-1.9-0.5-3.9-0.8-5.9-0.8c-6.6,0-11.8,2-15.7,6c-3.9,4-5.8,10.4-5.8,19.2c0,8.4,1.9,14.5,5.6,18.3c3.7,3.8,8.9,5.8,15.4,5.8
	c2.6,0,4.8-0.3,6.8-0.8c2-0.5,3.6-1.2,4.8-1.9V128.7z"/>
<path fill="#FFFFFF" d="M697.8,168.9c0,9-3.3,16-10,21.1c-6.7,5-16.6,7.6-29.6,7.6c-5.1,0-9.8-0.4-14-1.1c-4.2-0.7-7.8-1.8-10.9-3.3
	c-3-1.5-5.4-3.3-7.1-5.5c-1.7-2.2-2.6-4.7-2.6-7.7c0-2.7,0.5-5,1.6-6.8c1.1-1.9,2.5-3.4,4.2-4.7c3.5,2.1,7.5,3.9,12,5.5
	c4.5,1.6,9.7,2.4,15.7,2.4c8.6,0,13-2.4,13-7.3c0-2.1-0.8-3.7-2.3-4.7c-1.5-1.1-4.1-2.1-7.8-2.9l-7.3-1.6c-10-2.1-17.4-5.3-22.3-9.6
	c-4.9-4.3-7.3-10.4-7.3-18.2c0-8.6,3.5-15.5,10.5-20.5c7-5,16.4-7.6,28.2-7.6c4.4,0,8.5,0.3,12.4,1c3.9,0.7,7.2,1.7,10,3
	c2.8,1.3,5,3,6.7,5c1.6,2,2.5,4.4,2.5,7c0,2.4-0.5,4.6-1.5,6.5c-1,1.9-2.3,3.4-3.8,4.7c-1-0.6-2.4-1.3-4.3-2c-1.9-0.7-3.9-1.4-6.1-2
	c-2.2-0.6-4.5-1.1-6.9-1.5c-2.4-0.4-4.7-0.5-6.8-0.5c-4.3,0-7.6,0.6-10,1.7c-2.4,1.2-3.6,2.9-3.6,5.2c0,1.7,0.7,3,2,4
	c1.3,1,3.8,1.9,7.3,2.7l6.9,1.6c11.1,2.4,19,6,23.7,10.6C695.4,155.6,697.8,161.6,697.8,168.9z"/>
<path fill="#FFFFFF" d="M805.6,133.6c0,4.8-0.7,9.1-2.1,13c-1.4,3.9-3.4,7.1-6,9.8c-2.6,2.7-5.7,4.8-9.4,6.2
	c-3.7,1.5-7.8,2.2-12.4,2.2s-8.7-0.7-12.4-2.2c-3.7-1.5-6.8-3.5-9.4-6.2c-2.6-2.7-4.6-6-6-9.8c-1.4-3.9-2.1-8.2-2.1-13
	s0.7-9.1,2.1-13c1.4-3.9,3.4-7.1,6-9.8c2.6-2.7,5.8-4.8,9.5-6.2c3.7-1.5,7.8-2.2,12.2-2.2c4.5,0,8.5,0.7,12.2,2.2
	c3.7,1.5,6.8,3.6,9.5,6.3c2.6,2.7,4.6,6,6,9.8C804.9,124.5,805.6,128.8,805.6,133.6z M775.7,113c-5,0-9,1.8-12,5.4
	c-2.9,3.6-4.4,8.7-4.4,15.2c0,6.6,1.4,11.6,4.3,15.2c2.9,3.6,6.9,5.4,12.1,5.4c5.2,0,9.2-1.8,12.1-5.4c2.9-3.6,4.3-8.6,4.3-15.2
	c0-6.5-1.4-11.5-4.3-15.2C784.9,114.8,780.8,113,775.7,113z"/>
<path fill="#FFFFFF" d="M832.8,107.8h23.8c0.3,0.5,0.7,1.2,0.9,2.1c0.3,0.9,0.4,1.9,0.4,3.1c0,3.5-1.6,5.3-4.8,5.3h-20v44.6
	c-0.6,0.3-1.4,0.5-2.5,0.7c-1.1,0.2-2.2,0.3-3.5,0.3c-2.4,0-4.2-0.5-5.4-1.4c-1.2-0.9-1.8-2.5-1.8-4.7v-57.5c0-3.9,0.6-7.2,1.7-10
	c1.1-2.8,2.8-5,4.9-6.8c2.1-1.8,4.6-3.1,7.6-3.9c3-0.8,6.3-1.3,9.9-1.3c5.2,0,9.2,0.7,12,2c2.8,1.3,4.2,3.2,4.2,5.7
	c0,1.2-0.2,2.2-0.7,3.1c-0.5,0.9-1,1.7-1.7,2.3c-1.6-0.7-3.4-1.3-5.5-1.8c-2.1-0.5-4.2-0.8-6.4-0.8c-4.7,0-8.1,0.9-10.1,2.8
	c-2,1.8-3,4.9-3,9.1V107.8z"/>
<path fill="#FFFFFF" d="M940.5,159.2v35.2c-1.3,0.4-3.2,0.7-5.7,1c-2.4,0.3-5,0.5-7.7,0.5c-5.7,0-9.7-1-12-2.9
	c-2.3-1.9-3.4-5.5-3.4-10.6V93.8c0-2.4,0.6-4.3,1.9-5.7c1.3-1.3,3.1-2.4,5.6-3.1c1.9-0.7,4.2-1.3,6.7-1.8c2.5-0.5,5-0.9,7.7-1.3
	c2.6-0.4,5.2-0.6,7.9-0.7c2.6-0.1,5.1-0.2,7.4-0.2c16.6,0,29.1,3.5,37.6,10.5c8.5,7,12.8,16.6,12.8,28.8c0,5.8-1.1,11.2-3.2,16
	c-2.1,4.8-5.2,8.9-9.2,12.3c-4,3.4-8.9,6-14.7,7.9c-5.8,1.8-12.3,2.7-19.6,2.7H940.5z M950.7,136.7c6,0,10.7-1.4,14.2-4.1
	c3.5-2.7,5.3-6.8,5.3-12.3c0-10.8-6.5-16.2-19.4-16.2c-2.2,0-4.1,0.1-5.8,0.2c-1.6,0.1-3.3,0.3-4.8,0.5v31.9H950.7z"/>
<path fill="#FFFFFF" d="M1039.1,194.4c-1.2,0.4-2.9,0.7-5.1,1c-2.2,0.3-4.6,0.5-7.3,0.5c-5.5,0-9.4-0.9-11.9-2.6
	c-2.4-1.8-3.7-5.2-3.7-10.3v-55.7c0-3.4,0.8-6.3,2.6-8.8c1.7-2.4,4.1-4.6,7.1-6.4c4-2.4,8.9-4.4,14.5-5.8c5.7-1.4,11.6-2.1,17.8-2.1
	c12.7,0,19,4.3,19,12.8c0,2.1-0.3,4-0.9,5.7c-0.6,1.7-1.3,3.2-2,4.4c-2.8-0.6-6.2-0.9-10.2-0.9c-3.5,0-7.1,0.4-10.6,1.3
	c-3.5,0.9-6.6,2-9.3,3.5V194.4z"/>
<path fill="#FFFFFF" d="M1105.7,162.3c1.7,5.1,4.7,8.7,8.9,10.9c4.3,2.1,9.2,3.2,14.8,3.2c5.1,0,9.9-0.7,14.4-2.1
	c4.5-1.4,8.2-2.9,11-4.7c1.8,1.2,3.3,2.8,4.6,4.7c1.2,1.9,1.8,4.1,1.8,6.4c0,2.8-0.9,5.2-2.6,7.3c-1.7,2.1-4,3.8-7,5.2
	c-3,1.4-6.5,2.4-10.6,3.1c-4.1,0.7-8.6,1-13.4,1c-7.2,0-13.8-1-19.9-3c-6.1-2-11.3-5-15.7-8.9c-4.4-4-7.8-8.9-10.3-14.9
	c-2.5-6-3.7-13-3.7-21c0-7.8,1.2-14.5,3.7-20.3c2.5-5.7,5.8-10.5,10-14.2c4.2-3.8,9-6.5,14.4-8.3c5.4-1.8,11-2.6,16.7-2.6
	c6.2,0,11.9,0.9,17.1,2.8c5.2,1.9,9.6,4.5,13.3,7.9c3.7,3.4,6.6,7.5,8.7,12.2c2.1,4.7,3.1,9.9,3.1,15.5c0,3.9-1,6.8-3.1,8.8
	c-2.1,1.9-5,3.2-8.8,3.8L1105.7,162.3z M1123.1,124.7c-5.2,0-9.6,1.6-13.1,4.8c-3.5,3.2-5.5,7.9-6.1,14l34.9-5.7
	c-0.2-3.2-1.6-6.1-4.2-8.9C1132,126.1,1128.2,124.7,1123.1,124.7z"/>
<path fill="#FFFFFF" d="M1253.2,168.9c0,9-3.3,16-10,21.1c-6.7,5-16.6,7.6-29.6,7.6c-5.1,0-9.8-0.4-14-1.1
	c-4.2-0.7-7.8-1.8-10.9-3.3c-3-1.5-5.4-3.3-7.1-5.5c-1.7-2.2-2.6-4.7-2.6-7.7c0-2.7,0.5-5,1.6-6.8c1.1-1.9,2.5-3.4,4.2-4.7
	c3.5,2.1,7.5,3.9,12,5.5c4.5,1.6,9.7,2.4,15.7,2.4c8.6,0,13-2.4,13-7.3c0-2.1-0.8-3.7-2.3-4.7c-1.5-1.1-4.1-2.1-7.8-2.9l-7.3-1.6
	c-10-2.1-17.4-5.3-22.3-9.6c-4.9-4.3-7.3-10.4-7.3-18.2c0-8.6,3.5-15.5,10.5-20.5c7-5,16.4-7.6,28.2-7.6c4.4,0,8.5,0.3,12.4,1
	c3.9,0.7,7.2,1.7,10,3c2.8,1.3,5,3,6.7,5c1.6,2,2.5,4.4,2.5,7c0,2.4-0.5,4.6-1.5,6.5c-1,1.9-2.3,3.4-3.8,4.7c-1-0.6-2.4-1.3-4.3-2
	c-1.9-0.7-3.9-1.4-6.1-2c-2.2-0.6-4.5-1.1-6.9-1.5c-2.4-0.4-4.7-0.5-6.8-0.5c-4.3,0-7.6,0.6-10,1.7c-2.4,1.2-3.6,2.9-3.6,5.2
	c0,1.7,0.7,3,2,4c1.3,1,3.8,1.9,7.3,2.7l6.9,1.6c11.1,2.4,19,6,23.7,10.6C1250.9,155.6,1253.2,161.6,1253.2,168.9z"/>
<path fill="#FFFFFF" d="M1300.7,173c2.2,1.5,5.2,2.3,9.1,2.3c1.8,0,3.8-0.2,5.8-0.6c2.1-0.4,3.8-0.9,5.3-1.6c1.1,1.2,2,2.6,2.7,4.2
	c0.7,1.6,1.1,3.4,1.1,5.5c0,4.3-1.7,7.8-5,10.5c-3.3,2.7-9.2,4.1-17.4,4.1c-10.2,0-18.2-2.3-23.9-7c-5.7-4.7-8.6-12.3-8.6-22.9v-82
	c1.3-0.4,3.1-0.8,5.3-1.2c2.2-0.4,4.6-0.6,7.1-0.6c5.4,0,9.2,0.9,11.6,2.8c2.4,1.9,3.6,5.3,3.6,10.3v11.9h25.2
	c0.6,1.2,1.2,2.8,1.8,4.7c0.6,1.9,0.9,3.9,0.9,5.9c0,3.9-0.9,6.7-2.6,8.4c-1.8,1.7-4,2.6-6.8,2.6h-18.4v35.4
	C1297.4,169,1298.5,171.5,1300.7,173z"/>
<path fill="#FFFFFF" d="M1376.6,104.1c6.3,0,12.1,0.6,17.3,1.9c5.2,1.3,9.6,3.3,13.2,5.9c3.7,2.7,6.5,6.1,8.5,10.2c2,4.1,3,9,3,14.6
	V178c0,3.2-0.8,5.7-2.5,7.6c-1.6,1.9-3.6,3.5-5.9,4.8c-3.8,2.3-8.4,4.1-13.9,5.3c-5.5,1.2-11.7,1.8-18.6,1.8
	c-12.5,0-22.5-2.4-29.9-7.2c-7.4-4.8-11.1-12.1-11.1-22c0-8.4,2.5-14.8,7.5-19.2c5-4.4,12.7-7.1,23-8.2l24.3-2.6v-2
	c0-3.9-1.6-6.8-4.7-8.6c-3.2-1.8-7.7-2.7-13.7-2.7c-4.6,0-9.2,0.5-13.6,1.6c-4.4,1.1-8.4,2.4-12,3.8c-1.5-1-2.7-2.5-3.7-4.5
	c-1-2-1.6-4.2-1.6-6.5c0-5.4,2.8-9.2,8.4-11.5c3.5-1.3,7.6-2.3,12.3-3C1367.5,104.4,1372.1,104.1,1376.6,104.1z M1377.7,176.9
	c2.7,0,5.3-0.3,7.9-0.8c2.6-0.5,4.6-1.2,5.9-2.1v-16.8l-15,1.3c-3.9,0.4-7,1.2-9.4,2.6c-2.4,1.4-3.6,3.5-3.6,6.3
	c0,2.9,1.1,5.2,3.3,6.9C1369.2,176.1,1372.7,176.9,1377.7,176.9z"/>
<path fill="#FF5E17" d="M802.5,219.4c-21.1,0-42.2-6.9-56.1-20.6c-1.2-1.2-1.2-3.1,0-4.3c1.2-1.2,3.1-1.2,4.3,0
	c25.2,24.8,78.4,24.8,103.6,0c1.2-1.2,3.1-1.2,4.3,0c1.2,1.2,1.2,3.1,0,4.3C844.7,212.6,823.6,219.4,802.5,219.4z"/>
</svg>
