<?xml version="1.0" encoding="utf-8"?>
<!-- Generator: Adobe Illustrator 27.2.0, SVG Export Plug-In . SVG Version: 6.00 Build 0)  -->
<svg version="1.1" id="Calque_1" xmlns="http://www.w3.org/2000/svg" xmlns:xlink="http://www.w3.org/1999/xlink" x="0px" y="0px"
	 viewBox="0 0 64 64" style="enable-background:new 0 0 64 64;" xml:space="preserve">
<style type="text/css">
	.st0{fill:#A4DBE8;}
</style>
<g>
	<circle class="st0" cx="32" cy="32" r="32"/>
	<g>
		<g>
			<path d="M43.5,20.7l-4,1c-0.6,0.2-0.9,1-0.4,1.5L40,24l-5.3,5.3c-0.4,0.4-0.9,0.4-1.3,0l-5.2-4.7c-1.1-1-2.8-0.9-3.8,0.1L19,30.4
				l1.4,1.3l5.5-5.8c0.4-0.4,0.9-0.4,1.3,0l5.2,4.7c1.1,1,2.7,0.9,3.8-0.1l5.3-5.3l0.8,0.8c0.5,0.5,1.4,0.3,1.5-0.4l1.1-4
				C44.8,21.1,44.2,20.5,43.5,20.7z"/>
		</g>
		<g>
			<path d="M22.2,43.1h-1.7c-0.5,0-0.9-0.4-0.9-0.9v-6.6c0-0.5,0.4-0.9,0.9-0.9h1.7c0.5,0,0.9,0.4,0.9,0.9v6.6
				C23,42.8,22.7,43.1,22.2,43.1z"/>
			<path d="M32.7,43.1h-1.5c-0.5,0-0.9-0.4-0.9-0.9v-8c0-0.5,0.4-0.9,0.9-0.9h1.5c0.5,0,0.9,0.4,0.9,0.9v8
				C33.6,42.7,33.2,43.1,32.7,43.1z"/>
			<path d="M27.2,43.1H26c-0.6,0-1.1-0.5-1.1-1.1V30.7c0-0.6,0.5-1.1,1.1-1.1h1.2c0.6,0,1.1,0.5,1.1,1.1v11.4
				C28.3,42.7,27.8,43.1,27.2,43.1z"/>
			<path d="M37.9,43.1h-1.5c-0.5,0-1-0.4-1-1v-8.8c0-0.5,0.4-1,1-1h1.5c0.5,0,1,0.4,1,1v8.8C38.9,42.7,38.4,43.1,37.9,43.1z"/>
			<path d="M43,43.1h-1.1c-0.6,0-1.1-0.5-1.1-1.1V29.3c0-0.6,0.5-1.1,1.1-1.1H43c0.6,0,1.1,0.5,1.1,1.1V42
				C44.1,42.6,43.6,43.1,43,43.1z"/>
		</g>
	</g>
</g>
</svg>
