<svg xmlns="http://www.w3.org/2000/svg" viewBox="0 0 566.92 62.84">
  <path d="M0 1.1h23.26c16.69 0 24.26 11.58 24.26 21.61s-7.57 21.61-24.26 21.61h-7.3v17.42H0Zm21.7 29.55c6.38 0 9.39-3.83 9.39-7.93s-3.01-7.93-9.39-7.93h-5.75v15.87h5.75zM55.78 1.1h23.16c16.69 0 24.08 11.58 24.08 21.61 0 6.2-2.83 12.86-8.75 17.14l10.85 21.89H87.15l-8.39-17.42h-7.02v17.42H55.78Zm21.25 29.55c6.47 0 9.58-3.83 9.58-7.93s-3.1-7.93-9.58-7.93h-5.29v15.87h5.29zm36.9-29.55h40.04v13.22h-24.08v10.3h20.61v13.22h-20.61v10.67h25.08v13.22h-41.04zm48.86 40.03h16.14c.27 5.65 5.38 8.03 10.21 8.03 4.38 0 8.57-1.92 8.57-5.11 0-8.85-34.02-1.82-34.02-25.17C163.69 7.39 173.54 0 187.13 0c16.87 0 25.26 10.12 25.9 22.16h-16.14c-.27-5.29-4.1-8.48-9.21-8.48-4.38 0-7.57 1.46-7.57 5.02 0 10.67 34.02 1.46 34.02 25.35 0 11.4-10.12 18.79-24.71 18.79-15.87 0-25.9-7.66-26.63-21.7zm71.29-25.9h-17.05V1.09h50.16v14.14h-17.15v46.51h-15.96zM282.99 1.1h19.97l20.79 60.65h-16.87L303.5 50.9h-21.52l-3.37 10.85H262.1L282.98 1.1Zm16.33 36.57-6.57-20.79-6.57 20.79h13.13zm26.95 3.46h16.14c.27 5.65 5.38 8.03 10.21 8.03 4.38 0 8.57-1.92 8.57-5.11 0-8.85-34.02-1.82-34.02-25.17C327.17 7.39 337.02 0 350.61 0c16.87 0 25.26 10.12 25.9 22.16h-16.14c-.27-5.29-4.1-8.48-9.21-8.48-4.38 0-7.57 1.46-7.57 5.02 0 10.67 34.02 1.46 34.02 25.35 0 11.4-10.12 18.79-24.71 18.79-15.87 0-25.9-7.66-26.63-21.7zM387.34 1.1h15.96v23.26h21.61V1.1h15.96v60.65h-15.96V37.58H403.3v24.17h-15.96zm62.21 30.18c0-18.6 12.4-31.28 30.55-31.28s30.64 12.68 30.64 31.28-12.4 31.55-30.64 31.55c-18.24 0-30.55-12.77-30.55-31.55zm30.55 17.87c8.48 0 14.23-7.3 14.23-17.87s-5.75-17.6-14.23-17.6-14.14 7.11-14.14 17.6c0 10.49 5.75 17.87 14.14 17.87zM519.41 1.1h23.25c16.69 0 24.26 11.58 24.26 21.61s-7.57 21.61-24.26 21.61h-7.3v17.42H519.4V1.1Zm21.71 29.55c6.38 0 9.39-3.83 9.39-7.93s-3.01-7.93-9.39-7.93h-5.75v15.87h5.75z"/>
</svg>
