<?xml version="1.0" standalone="no"?><!DOCTYPE svg PUBLIC "-//W3C//DTD SVG 1.1//EN" "http://www.w3.org/Graphics/SVG/1.1/DTD/svg11.dtd"><svg xmlns:xlink="http://www.w3.org/1999/xlink" version="1.1" class="highcharts-root" style="font-family: &quot;PT Sans&quot;; font-size: 12px;" xmlns="http://www.w3.org/2000/svg" width="650" height="400" viewBox="0 0 650 400" aria-label="Interactive chart" aria-hidden="false"><desc aria-hidden="true">Created with Highcharts 10.3.1</desc><defs aria-hidden="true"><clipPath id="highcharts-sh1scgo-145-"><rect x="0" y="0" width="400" height="650" fill="none"></rect></clipPath></defs><rect fill="#ffffff" class="highcharts-background" x="0" y="0" width="650" height="400" rx="0" ry="0" aria-hidden="true"></rect><g stroke-linejoin="round" class="highcharts-3d-frame highcharts-3d-frame-bottom" data-z-index="-1000" aria-hidden="true"><path fill="none" d="M 196.7184268447929 326.8579126615107 L 637.211408709868 326.99210131050694 L 639.3067890374905 324.8970401194576 L 198.81380717241538 324.7628514704613 Z" visibility="hidden"></path><path fill="none" d="M 199.78859129013202 323.7883669419392 L 639.2894718447002 323.9222533642486 L 637.211408709868 326 L 197.7105281552998 325.8661135776906 Z"></path><path fill="none" d="M 196.7184268447929 326.8579126615107 L 198.81380717241538 324.7628514704613 L 199.78859129013202 323.7883669419392 L 197.7105281552998 325.8661135776906 Z" visibility="hidden"></path><path fill="none" d="M 639.3067890374905 324.8970401194576 L 637.211408709868 326.99210131050694 L 637.211408709868 326 L 639.2894718447002 323.9222533642486 Z"></path><path fill="none" d="M 637.211408709868 326.99210131050694 L 196.7184268447929 326.8579126615107 L 197.7105281552998 325.8661135776906 L 637.211408709868 326 Z"></path><path fill="none" d="M 198.81380717241538 324.7628514704613 L 639.3067890374905 324.8970401194576 L 639.2894718447002 323.9222533642486 L 199.78859129013202 323.7883669419392 Z" visibility="hidden"></path></g><g stroke-linejoin="round" class="highcharts-3d-frame highcharts-3d-frame-left" data-z-index="-1000" aria-hidden="true"><path fill="none" d="M 196.7184268447929 326.8579126615107 L 197.7105281552998 325.8661135776906 L 199.78859129013202 323.7883669419392 L 198.81380717241538 324.7628514704613 Z" visibility="hidden"></path><path fill="none" d="M 198.81380717241538 45.982383218015144 L 199.78859129013202 46 L 197.7105281552998 48.077746635751424 L 196.7184268447929 48.0774444090645 Z"></path><path fill="none" d="M 198.81380717241538 324.7628514704613 L 198.81380717241538 45.982383218015144 L 196.7184268447929 48.0774444090645 L 196.7184268447929 326.8579126615107 Z" visibility="hidden"></path><path fill="none" d="M 199.78859129013202 46 L 199.78859129013202 323.7883669419392 L 197.7105281552998 325.8661135776906 L 197.7105281552998 48.077746635751424 Z"></path><path fill="none" d="M 196.7184268447929 326.8579126615107 L 196.7184268447929 48.0774444090645 L 197.7105281552998 48.077746635751424 L 197.7105281552998 325.8661135776906 Z"></path><path fill="none" d="M 198.81380717241538 45.982383218015144 L 198.81380717241538 324.7628514704613 L 199.78859129013202 323.7883669419392 L 199.78859129013202 46 Z" visibility="hidden"></path></g><g stroke-linejoin="round" class="highcharts-3d-frame highcharts-3d-frame-back" data-z-index="-1000" aria-hidden="true"><path fill="none" d="M 639.3067890374905 324.8970401194576 L 198.81380717241538 324.7628514704613 L 199.78859129013202 323.7883669419392 L 639.2894718447002 323.9222533642486 Z" visibility="hidden"></path><path fill="none" d="M 198.81380717241538 45.982383218015144 L 639.3067890374905 46.11657186701143 L 639.2894718447002 46.13388642230936 L 199.78859129013202 46 Z"></path><path fill="none" d="M 198.81380717241538 324.7628514704613 L 198.81380717241538 45.982383218015144 L 199.78859129013202 46 L 199.78859129013202 323.7883669419392 Z" visibility="hidden"></path><path fill="none" d="M 639.3067890374905 46.11657186701143 L 639.3067890374905 324.8970401194576 L 639.2894718447002 323.9222533642486 L 639.2894718447002 46.13388642230936 Z"></path><path fill="none" d="M 199.78859129013202 46 L 639.2894718447002 46.13388642230936 L 639.2894718447002 323.9222533642486 L 199.78859129013202 323.7883669419392 Z"></path><path fill="none" d="M 198.81380717241538 324.7628514704613 L 639.3067890374905 324.8970401194576 L 639.3067890374905 46.11657186701143 L 198.81380717241538 45.982383218015144 Z" visibility="hidden"></path></g><rect fill="none" class="highcharts-plot-background" x="197" y="46" width="443" height="280" aria-hidden="true"></rect><g class="highcharts-pane-group" data-z-index="0" aria-hidden="true"></g><g class="highcharts-grid highcharts-xaxis-grid" data-z-index="1" aria-hidden="true"><path fill="none" stroke="#e6e6e6" stroke-width="1" stroke-dasharray="none" data-z-index="1" class="highcharts-grid-line" d="M 199.78859129013202 138.76147253239756 L 639.2894718447002 138.89535895470692 M 197.7105281552998 140.839219168149 L 199.78859129013202 138.76147253239756" opacity="1"></path><path fill="none" stroke="#e6e6e6" stroke-width="1" stroke-dasharray="none" data-z-index="1" class="highcharts-grid-line" d="M 199.78859129013202 232.0189957200486 L 639.2894718447002 232.15288214235795 M 197.7105281552998 234.09674235580002 L 199.78859129013202 232.0189957200486" opacity="1"></path><path fill="none" stroke="#e6e6e6" stroke-width="1" stroke-dasharray="none" data-z-index="1" class="highcharts-grid-line" d="M 199.78859129013202 324.2844175971927 L 639.2894718447002 324.41830401950205 M 197.7105281552998 326.3621642329441 L 199.78859129013202 324.2844175971927" opacity="1"></path><path fill="none" stroke="#e6e6e6" stroke-width="1" stroke-dasharray="none" data-z-index="1" class="highcharts-grid-line" d="M 199.78859129013202 45.50394934474653 L 639.2894718447002 45.63783576705589 M 197.7105281552998 47.581695980497955 L 199.78859129013202 45.50394934474653" opacity="1"></path></g><g class="highcharts-grid highcharts-zaxis-grid" data-z-index="1" aria-hidden="true"></g><g class="highcharts-grid highcharts-yaxis-grid" data-z-index="1" aria-hidden="true"><path fill="none" stroke="#e6e6e6" stroke-width="1" stroke-dasharray="none" data-z-index="1" class="highcharts-grid-line" d="M 199.29254063487855 45.99984888665654 L 199.29254063487855 323.78821582859575 M 197.21447750004634 325.8659624643472 L 199.29254063487855 323.78821582859575" opacity="1"></path><path fill="none" stroke="#e6e6e6" stroke-width="1" stroke-dasharray="none" data-z-index="1" class="highcharts-grid-line" d="M 272.7080376123911 46.022213661489246 L 272.7080376123911 323.8105806034285 M 270.6299744775589 325.88832723917994 L 272.7080376123911 323.8105806034285" opacity="1"></path><path fill="none" stroke="#e6e6e6" stroke-width="1" stroke-dasharray="none" data-z-index="1" class="highcharts-grid-line" d="M 346.12353458990356 46.044578436321956 L 346.12353458990356 323.83294537826123 M 344.0454714550714 325.9106920140126 L 346.12353458990356 323.83294537826123" opacity="1"></path><path fill="none" stroke="#e6e6e6" stroke-width="1" stroke-dasharray="none" data-z-index="1" class="highcharts-grid-line" d="M 419.5390315674161 46.066943211154666 L 419.5390315674161 323.8553101530939 M 417.4609684325839 325.9330567888453 L 419.5390315674161 323.8553101530939" opacity="1"></path><path fill="none" stroke="#e6e6e6" stroke-width="1" stroke-dasharray="none" data-z-index="1" class="highcharts-grid-line" d="M 491.9624272344217 46.08900575930045 L 491.9624272344217 323.87737270123966 M 489.8843640995895 325.9551193369911 L 491.9624272344217 323.87737270123966" opacity="1"></path><path fill="none" stroke="#e6e6e6" stroke-width="1" stroke-dasharray="none" data-z-index="1" class="highcharts-grid-line" d="M 565.3779242119342 46.11137053413316 L 565.3779242119342 323.8997374760724 M 563.299861077102 325.97748411182386 L 565.3779242119342 323.8997374760724" opacity="1"></path><path fill="none" stroke="#e6e6e6" stroke-width="1" stroke-dasharray="none" data-z-index="1" class="highcharts-grid-line" d="M 639.7855224999537 46.134037535652794 L 639.7855224999537 323.922404477592 M 637.7074593651214 326.00015111334346 L 639.7855224999537 323.922404477592" opacity="1"></path></g><rect fill="none" class="highcharts-plot-border" data-z-index="1" x="197" y="46" width="443" height="280" aria-hidden="true"></rect><g class="highcharts-axis highcharts-xaxis" data-z-index="2" aria-hidden="true"><path fill="none" class="highcharts-axis-line" stroke="#ccd6eb" stroke-width="1" data-z-index="7" d="M 0 0"></path></g><g class="highcharts-axis highcharts-zaxis" data-z-index="2" aria-hidden="true"><path fill="none" class="highcharts-axis-line" data-z-index="7" d="M 0 0"></path></g><g class="highcharts-axis highcharts-yaxis" data-z-index="2" aria-hidden="true"><path fill="none" class="highcharts-axis-line" data-z-index="7" d="M 0 0"></path></g><g class="highcharts-series-group" data-z-index="3" aria-hidden="false"><g class="highcharts-markers highcharts-series-0 highcharts-bar-series" transform="translate(640,326) rotate(90) scale(-1,1) scale(1 1)" visibility="visible" data-z-index="20" opacity="1" clip-path="none" aria-hidden="false"><g stroke-linejoin="round" data-z-index="30102060" stroke="#6f58e9" stroke-width="1" opacity="1" class="highcharts-point" tabindex="-1" role="img" aria-label="Old page. PrestaShop 1.7.8.9. PHP 7.4, 10.3. Time to the full page load (in seconds)." style="outline: none;"><path fill="#6f58e9" d="M 29.914240292815037 442.2721546519099 L 63.64568485005053 442.2721546519099 L 63.5311409357046 66.265757969785 L 29.799696378469122 66.265757969785 Z" class="highcharts-3d-front" data-z-index="0"></path><path fill="rgb(136,113,255)" d="M 63.5311409357046 66.265757969785 L 67.85977976018673 61.93645977221797 L 34.12833520295125 61.93645977221797 L 29.799696378469122 66.265757969785 Z" class="highcharts-3d-top" data-z-index="0"></path><path fill="rgb(86,63,208)" d="M 63.5311409357046 66.265757969785 L 63.64568485005053 442.2721546519099 L 67.97432367453266 437.94285645434286 L 67.85977976018673 61.93645977221797 Z" class="highcharts-3d-side" data-z-index="0"></path></g><g stroke-linejoin="round" data-z-index="123101400" stroke="#6f58e9" stroke-width="1" opacity="1" class="highcharts-point" tabindex="-1" role="img" aria-label="Old page. PrestaShop 8.0.4. PHP 8.1, 8.5. Time to the full page load (in seconds)." style="outline: none;"><path fill="#6f58e9" d="M 122.17966216995916 442.2721546519099 L 155.91110672719464 442.2721546519099 L 155.816509774186 131.74444446324208 L 122.08506521695051 131.74444446324208 Z" class="highcharts-3d-front" data-z-index="0"></path><path fill="rgb(136,113,255)" d="M 155.816509774186 131.74444446324208 L 160.14514859866813 127.41514626567505 L 126.41370404143264 127.41514626567505 L 122.08506521695051 131.74444446324208 Z" class="highcharts-3d-top" data-z-index="0"></path><path fill="rgb(86,63,208)" d="M 155.816509774186 131.74444446324208 L 155.91110672719464 442.2721546519099 L 160.23974555167675 437.94285645434286 L 160.14514859866813 127.41514626567505 Z" class="highcharts-3d-side" data-z-index="0"></path></g><g stroke-linejoin="round" data-z-index="217098590" stroke="#6f58e9" stroke-width="1" opacity="1" class="highcharts-point" tabindex="-1" role="img" aria-label="New page. PrestaShop 8.1.0. PHP 8.1, 0.9. Time to the full page load (in seconds)." style="outline: none;"><path fill="#6f58e9" d="M 215.4371853576102 442.2721546519099 L 249.16862991484567 442.2721546519099 L 249.15895866086396 410.5249127156883 L 215.42751410362848 410.5249127156883 Z" class="highcharts-3d-front" data-z-index="0"></path><path fill="rgb(136,113,255)" d="M 249.15895866086396 410.5249127156883 L 253.48759748534607 406.19561451812126 L 219.75615292811057 406.19561451812126 L 215.42751410362848 410.5249127156883 Z" class="highcharts-3d-top" data-z-index="0"></path><path fill="rgb(86,63,208)" d="M 249.15895866086396 410.5249127156883 L 249.16862991484567 442.2721546519099 L 253.4972687393278 437.94285645434286 L 253.48759748534607 406.19561451812126 Z" class="highcharts-3d-side" data-z-index="0"></path></g></g></g><text x="325" text-anchor="middle" class="highcharts-title" data-z-index="4" style="color: rgb(51, 51, 51); font-size: 18px; fill: rgb(51, 51, 51);" y="24" aria-hidden="true">Product with combinations - load time</text><text x="325" text-anchor="middle" class="highcharts-subtitle" data-z-index="4" style="color: rgb(102, 102, 102); fill: rgb(102, 102, 102);" y="45" aria-hidden="true"></text><text x="10" text-anchor="start" class="highcharts-caption" data-z-index="4" style="color: rgb(102, 102, 102); fill: rgb(102, 102, 102);" y="397" aria-hidden="true"></text><g class="highcharts-data-labels highcharts-series-0 highcharts-bar-series" data-z-index="6" opacity="1" transform="translate(197,46) scale(1 1)" aria-hidden="true"><g class="highcharts-label highcharts-data-label highcharts-data-label-color-undefined" data-z-index="1" transform="translate(35,34)" style="cursor: pointer;"><text x="5" data-z-index="1" y="16" style="color: rgb(0, 0, 0); font-size: 11px; font-weight: bold; fill: rgb(0, 0, 0);">0.9</text></g><g class="highcharts-label highcharts-data-label highcharts-data-label-color-undefined" data-z-index="1" transform="translate(313,128)" style="cursor: pointer;"><text x="5" data-z-index="1" y="16" style="color: rgb(0, 0, 0); font-size: 11px; font-weight: bold; fill: rgb(0, 0, 0);">8.5</text></g><g class="highcharts-label highcharts-data-label highcharts-data-label-color-undefined" data-z-index="1" transform="translate(379,220)" style="cursor: pointer;"><text x="5" data-z-index="1" y="16" style="color: rgb(0, 0, 0); font-size: 11px; font-weight: bold; fill: rgb(0, 0, 0);">10.3</text></g></g><g class="highcharts-legend highcharts-no-tooltip" data-z-index="7" transform="translate(208,359)" aria-hidden="true"><rect fill="none" class="highcharts-legend-box" rx="0" ry="0" x="0" y="0" width="234" height="26"></rect><g data-z-index="1"><g><g class="highcharts-legend-item highcharts-bar-series highcharts-color-undefined highcharts-series-0" data-z-index="1" transform="translate(8,3)"><text x="21" text-anchor="start" data-z-index="2" y="15" style="color: rgb(51, 51, 51); cursor: pointer; font-size: 12px; font-weight: bold; fill: rgb(51, 51, 51);">Time to the full page load (in seconds)</text><rect x="2" y="4" width="12" height="12" fill="#6f58e9" rx="6" ry="6" class="highcharts-point" data-z-index="3"></rect></g></g></g></g><g class="highcharts-axis-labels highcharts-xaxis-labels" data-z-index="7" aria-hidden="true"><text x="182.82674162491614" text-anchor="end" transform="translate(0,0)" style="color: rgb(102, 102, 102); cursor: default; font-size: 11px; fill: rgb(102, 102, 102);" y="98.67491347160463" z="2.776931319838191" opacity="1">New page. PrestaShop 8.1.0. PHP 8.1</text><text x="182.82674162491614" text-anchor="end" transform="translate(0,0)" style="color: rgb(102, 102, 102); cursor: default; font-size: 11px; fill: rgb(102, 102, 102);" y="191.93243665925567" z="4.404747442123394" opacity="1">Old page. PrestaShop 8.0.4. PHP 8.1</text><text x="182.82674162491614" text-anchor="end" transform="translate(0,0)" style="color: rgb(102, 102, 102); cursor: default; font-size: 11px; fill: rgb(102, 102, 102);" y="284.1978585363998" z="6.015246371618325" opacity="1">Old page. PrestaShop 1.7.8.9. PHP 7.4</text></g><g class="highcharts-axis-labels highcharts-zaxis-labels" data-z-index="7" aria-hidden="true"></g><g class="highcharts-axis-labels highcharts-yaxis-labels" data-z-index="7" aria-hidden="true"><text x="197.71052815529984" text-anchor="middle" transform="translate(0,0)" style="color: rgb(102, 102, 102); cursor: default; font-size: 11px; fill: rgb(102, 102, 102);" y="344.71890984951006" z="6.742568468809587" opacity="1">0</text><text x="270.96067491439123" text-anchor="middle" transform="translate(0,0)" style="color: rgb(102, 102, 102); cursor: default; font-size: 11px; fill: rgb(102, 102, 102);" y="344.74122425322827" z="5.464177135979263" opacity="1">2</text><text x="344.2108216734925" text-anchor="middle" transform="translate(0,0)" style="color: rgb(102, 102, 102); cursor: default; font-size: 11px; fill: rgb(102, 102, 102);" y="344.7635386569465" z="4.185785803148761" opacity="1">4</text><text x="417.4609684325839" text-anchor="middle" transform="translate(0,0)" style="color: rgb(102, 102, 102); cursor: default; font-size: 11px; fill: rgb(102, 102, 102);" y="344.78585306066475" z="2.9073944703184296" opacity="1">6</text><text x="490.7111151916753" text-anchor="middle" transform="translate(0,0)" style="color: rgb(102, 102, 102); cursor: default; font-size: 11px; fill: rgb(102, 102, 102);" y="344.80816746438296" z="1.6290031374880982" opacity="1">8</text><text x="563.9612619507766" text-anchor="middle" transform="translate(0,0)" style="color: rgb(102, 102, 102); cursor: default; font-size: 11px; fill: rgb(102, 102, 102);" y="344.8304818681012" z="0.35061180465759634" opacity="1">10</text><text x="634.00390625" text-anchor="middle" transform="translate(0,0)" y="344.8527962718194" z="-0.9277795281727279" opacity="1" style="color: rgb(102, 102, 102); cursor: default; font-size: 11px; fill: rgb(102, 102, 102);">12</text></g><text x="640" class="highcharts-credits" text-anchor="end" data-z-index="8" y="395" style="cursor: pointer; color: rgb(153, 153, 153); font-size: 9px; fill: rgb(153, 153, 153);" aria-label="Chart credits: Highcharts.com" aria-hidden="false">Highcharts.com</text><g stroke-linejoin="round" class="highcharts-3d-frame highcharts-3d-frame-top" data-z-index="1000" aria-hidden="true"><path fill="none" d="M 198.81380717241538 45.982383218015144 L 639.3067890374905 46.11657186701143 L 637.211408709868 48.211633058060784 L 196.7184268447929 48.0774444090645 Z" visibility="hidden"></path><path fill="none" d="M 197.7105281552998 48.077746635751424 L 637.211408709868 48.211633058060784 L 639.2894718447002 46.13388642230936 L 199.78859129013202 46 Z" visibility="hidden"></path><path fill="none" d="M 198.81380717241538 45.982383218015144 L 196.7184268447929 48.0774444090645 L 197.7105281552998 48.077746635751424 L 199.78859129013202 46 Z" visibility="hidden"></path><path fill="none" d="M 637.211408709868 48.211633058060784 L 639.3067890374905 46.11657186701143 L 639.2894718447002 46.13388642230936 L 637.211408709868 48.211633058060784 Z" visibility="hidden"></path><path fill="none" d="M 196.7184268447929 48.0774444090645 L 637.211408709868 48.211633058060784 L 637.211408709868 48.211633058060784 L 197.7105281552998 48.077746635751424 Z" visibility="hidden"></path><path fill="none" d="M 639.3067890374905 46.11657186701143 L 198.81380717241538 45.982383218015144 L 199.78859129013202 46 L 639.2894718447002 46.13388642230936 Z" visibility="hidden"></path></g><g stroke-linejoin="round" class="highcharts-3d-frame highcharts-3d-frame-right" data-z-index="1000" aria-hidden="true"><path fill="none" d="M 639.3067890374905 324.8970401194576 L 639.2894718447002 323.9222533642486 L 637.211408709868 326 L 637.211408709868 326.99210131050694 Z" visibility="hidden"></path><path fill="none" d="M 637.211408709868 48.211633058060784 L 637.211408709868 48.211633058060784 L 639.2894718447002 46.13388642230936 L 639.3067890374905 46.11657186701143 Z" visibility="hidden"></path><path fill="none" d="M 637.211408709868 48.211633058060784 L 637.211408709868 326 L 639.2894718447002 323.9222533642486 L 639.2894718447002 46.13388642230936 Z" visibility="hidden"></path><path fill="none" d="M 637.211408709868 326.99210131050694 L 637.211408709868 48.211633058060784 L 639.3067890374905 46.11657186701143 L 639.3067890374905 324.8970401194576 Z" visibility="hidden"></path><path fill="none" d="M 637.211408709868 48.211633058060784 L 637.211408709868 326.99210131050694 L 637.211408709868 326 L 637.211408709868 48.211633058060784 Z" visibility="hidden"></path><path fill="none" d="M 639.3067890374905 324.8970401194576 L 639.3067890374905 46.11657186701143 L 639.2894718447002 46.13388642230936 L 639.2894718447002 323.9222533642486 Z" visibility="hidden"></path></g><g stroke-linejoin="round" class="highcharts-3d-frame highcharts-3d-frame-front" data-z-index="1000" aria-hidden="true"><path fill="none" d="M 196.7184268447929 326.8579126615107 L 637.211408709868 326.99210131050694 L 637.211408709868 326 L 197.7105281552998 325.8661135776906 Z" visibility="hidden"></path><path fill="none" d="M 637.211408709868 48.211633058060784 L 196.7184268447929 48.0774444090645 L 197.7105281552998 48.077746635751424 L 637.211408709868 48.211633058060784 Z" visibility="hidden"></path><path fill="none" d="M 196.7184268447929 48.0774444090645 L 196.7184268447929 326.8579126615107 L 197.7105281552998 325.8661135776906 L 197.7105281552998 48.077746635751424 Z" visibility="hidden"></path><path fill="none" d="M 637.211408709868 326.99210131050694 L 637.211408709868 48.211633058060784 L 637.211408709868 48.211633058060784 L 637.211408709868 326 Z" visibility="hidden"></path><path fill="none" d="M 637.211408709868 48.211633058060784 L 197.7105281552998 48.077746635751424 L 197.7105281552998 325.8661135776906 L 637.211408709868 326 Z" visibility="hidden"></path><path fill="none" d="M 637.211408709868 326.99210131050694 L 196.7184268447929 326.8579126615107 L 196.7184268447929 48.0774444090645 L 637.211408709868 48.211633058060784 Z" visibility="hidden"></path></g></svg>