<?xml version="1.0" standalone="no"?>
<!DOCTYPE svg PUBLIC "-//W3C//DTD SVG 20010904//EN"
 "http://www.w3.org/TR/2001/REC-SVG-20010904/DTD/svg10.dtd">
<svg version="1.0" xmlns="http://www.w3.org/2000/svg"
 width="260.000000pt" height="260.000000pt" viewBox="0 0 260.000000 260.000000"
 preserveAspectRatio="xMidYMid meet">
<metadata>
Created by potrace 1.14, written by Peter Selinger 2001-2017
</metadata>
<g transform="translate(0.000000,260.000000) scale(0.100000,-0.100000)"
fill="#000000" stroke="none">
<path d="M1121 2195 c-199 -44 -339 -123 -482 -272 -202 -211 -290 -510 -234
-797 21 -113 28 -119 49 -42 51 188 203 396 366 502 93 60 176 92 287 111 151
25 303 1 451 -74 l52 -26 0 -93 c0 -113 -15 -225 -41 -311 -16 -52 -162 -385
-175 -402 -5 -5 -176 79 -233 115 l-45 27 34 -42 c34 -41 191 -178 217 -188 7
-3 13 -18 13 -34 0 -100 96 -174 244 -188 l71 -7 -59 -22 c-117 -45 -183 -56
-336 -56 -120 0 -160 4 -230 23 -96 26 -213 77 -263 115 -19 14 -40 26 -48 26
-34 0 -249 -163 -288 -219 l-21 -29 67 -50 c144 -105 285 -171 473 -218 368
-94 773 -16 1078 207 l82 61 -19 27 c-21 30 -138 130 -200 172 l-38 25 66 34
c104 54 331 233 331 260 0 39 -391 525 -502 625 l-50 45 23 37 c60 101 150
173 216 173 41 0 97 -30 146 -78 l48 -47 -21 55 c-111 284 -385 505 -694 559
-82 15 -258 12 -335 -4z"/>
<path d="M1358 1625 c-3 -6 -22 -63 -42 -127 -42 -135 -12 -115 -247 -169 -77
-18 -136 -36 -132 -40 5 -3 80 -23 168 -44 88 -20 167 -44 176 -52 58 -50 160
-28 193 42 21 44 16 97 -11 127 -10 11 -36 77 -58 146 -23 70 -44 122 -47 117z
m42 -250 c10 -12 10 -21 2 -40 -19 -40 -82 -29 -82 15 0 37 55 55 80 25z"/>
<path d="M2097 1520 c-15 -42 -50 -219 -48 -245 2 -39 27 -75 51 -75 11 0 31
18 50 46 28 43 30 48 15 64 -8 9 -26 64 -39 121 -13 57 -26 97 -29 89z m18
-190 c0 -13 -5 -25 -12 -27 -13 -5 -27 32 -18 47 11 18 30 5 30 -20z"/>
</g>
</svg>
